<svg width="108" height="29" viewBox="0 0 108 29" fill="none" xmlns="http://www.w3.org/2000/svg">
<g clip-path="url(#clip0_1488_1241)">
<path d="M14.7543 25.4576V22.1517C14.7543 22.0846 14.6984 22.0342 14.6368 22.0342H13.2437C13.1765 22.0342 13.1262 21.9783 13.1262 21.9167V20.5239C13.1262 20.4568 13.0702 20.4064 13.0087 20.4064H3.45802C3.39089 20.4064 3.34053 20.3505 3.34053 20.289V18.9073C3.34053 18.8402 3.28458 18.7898 3.22304 18.7898H1.82988C1.76274 18.7898 1.71239 18.7339 1.71239 18.6724V17.2907C1.71239 17.2236 1.65644 17.1733 1.59489 17.1733H0.207338C0.140199 17.1733 0.0898438 17.1173 0.0898438 17.0558V14.0352C0.0898438 13.9681 0.145794 13.9177 0.207338 13.9177H1.5893C1.65644 13.9177 1.70679 13.8618 1.70679 13.8002V12.1277C1.70679 12.0606 1.76274 12.0103 1.82429 12.0103H3.75456C3.8217 12.0103 3.87205 12.0662 3.87205 12.1277V15.4336C3.87205 15.5007 3.928 15.5511 3.98955 15.5511H4.83999C4.90713 15.5511 4.95748 15.607 4.95748 15.6685V17.0614C4.95748 17.1285 5.01343 17.1789 5.07498 17.1789H14.6144C14.6816 17.1789 14.7319 17.2348 14.7319 17.2963V18.678C14.7319 18.7451 14.7879 18.7954 14.8494 18.7954H16.2426C16.3097 18.7954 16.3601 18.8514 16.3601 18.9129V20.2946C16.3601 20.3617 16.416 20.412 16.4776 20.412H17.8707C17.9378 20.412 17.9882 20.468 17.9882 20.5295V23.5501C17.9882 23.6172 17.9323 23.6676 17.8707 23.6676H16.4776C16.4104 23.6676 16.3601 23.7235 16.3601 23.785V25.4576C16.3601 25.5247 16.3041 25.575 16.2426 25.575H14.8494C14.7823 25.575 14.7319 25.5191 14.7319 25.4576H14.7543Z" fill="#581000"/>
<path d="M16.2646 25.6646H14.8715C14.7596 25.6646 14.6645 25.5751 14.6645 25.4576V22.1517C14.6645 22.1517 14.6477 22.1182 14.6309 22.1182H13.2377C13.1258 22.1182 13.0307 22.0287 13.0307 21.9112V20.5183C13.0307 20.5183 13.0139 20.4848 12.9972 20.4848H3.4577C3.3458 20.4848 3.25069 20.3953 3.25069 20.2778V18.8962C3.25069 18.8962 3.2339 18.8626 3.21712 18.8626H1.82397C1.71207 18.8626 1.61695 18.7731 1.61695 18.6556V17.274C1.61695 17.274 1.60017 17.2404 1.58338 17.2404H0.207014C0.0951148 17.2404 0 17.1509 0 17.0335V14.0128C0 13.901 0.0895198 13.8059 0.207014 13.8059H1.58898C1.58898 13.8059 1.62255 13.7891 1.62255 13.7723V12.0998C1.62255 11.9879 1.71207 11.8928 1.82956 11.8928H3.75983C3.87173 11.8928 3.96684 11.9823 3.96684 12.0998V15.4057C3.96684 15.4057 3.98363 15.4392 4.00041 15.4392H4.85085C4.96275 15.4392 5.05787 15.5287 5.05787 15.6462V17.0391C5.05787 17.0391 5.07465 17.0726 5.09144 17.0726H14.6309C14.7428 17.0726 14.8379 17.1621 14.8379 17.2796V18.6612C14.8379 18.6612 14.8547 18.6948 14.8715 18.6948H16.2646C16.3765 18.6948 16.4716 18.7843 16.4716 18.9018V20.2834C16.4716 20.2834 16.4884 20.317 16.5052 20.317H17.8984C18.0103 20.317 18.1054 20.4065 18.1054 20.5239V23.5446C18.1054 23.6564 18.0159 23.7515 17.8984 23.7515H16.5052C16.5052 23.7515 16.4716 23.7683 16.4716 23.7851V25.4576C16.4716 25.5695 16.3821 25.6646 16.2646 25.6646ZM0.207014 13.9793C0.207014 13.9793 0.173445 13.9961 0.173445 14.0128V17.0335C0.173445 17.0335 0.19023 17.067 0.207014 17.067H1.58898C1.70088 17.067 1.79599 17.1565 1.79599 17.274V18.6556C1.79599 18.6556 1.81278 18.6892 1.82956 18.6892H3.22271C3.33461 18.6892 3.42973 18.7787 3.42973 18.8962V20.2778C3.42973 20.2778 3.44651 20.3114 3.4633 20.3114H13.0027C13.1146 20.3114 13.2098 20.4009 13.2098 20.5183V21.9112C13.2098 21.9112 13.2265 21.9447 13.2433 21.9447H14.6365C14.7484 21.9447 14.8435 22.0342 14.8435 22.1517V25.4576C14.8435 25.4576 14.8603 25.4912 14.8771 25.4912H16.2702C16.2702 25.4912 16.3038 25.4744 16.3038 25.4576V23.7851C16.3038 23.6732 16.3933 23.5781 16.5108 23.5781H17.904C17.904 23.5781 17.9375 23.5613 17.9375 23.5446V20.5239C17.9375 20.5239 17.9207 20.4904 17.904 20.4904H16.5108C16.3989 20.4904 16.3038 20.4009 16.3038 20.2834V18.9018C16.3038 18.9018 16.287 18.8682 16.2702 18.8682H14.8771C14.7652 18.8682 14.6701 18.7787 14.6701 18.6612V17.2796C14.6701 17.2796 14.6533 17.246 14.6365 17.246H5.09144C4.97954 17.246 4.88442 17.1565 4.88442 17.0391V15.6462C4.88442 15.6462 4.86764 15.6127 4.85085 15.6127H4.00041C3.88851 15.6127 3.7934 15.5232 3.7934 15.4057V12.0998C3.7934 12.0998 3.77662 12.0662 3.75983 12.0662H1.82956C1.82956 12.0662 1.79599 12.083 1.79599 12.0998V13.7723C1.79599 13.8842 1.70647 13.9793 1.58898 13.9793H0.207014Z" fill="#581000"/>
<path d="M3.70381 28.1928V26.8C3.70381 26.7328 3.64786 26.6825 3.58632 26.6825H2.19317C2.12603 26.6825 2.07567 26.6265 2.07567 26.565V25.1722C2.07567 25.1051 2.01972 25.0547 1.95818 25.0547H0.57062C0.50348 25.0547 0.453125 24.9988 0.453125 24.9372V21.9166C0.453125 21.8495 0.509075 21.7992 0.57062 21.7992H1.95258C2.01972 21.7992 2.07008 21.7432 2.07008 21.6817V20.2889C2.07008 20.2217 2.12603 20.1714 2.18757 20.1714H3.58072C3.64786 20.1714 3.69822 20.2273 3.69822 20.2889V24.9428C3.69822 25.01 3.75417 25.0603 3.81571 25.0603H5.20886C5.276 25.0603 5.32636 25.1162 5.32636 25.1778V26.5706C5.32636 26.6377 5.38231 26.6881 5.44385 26.6881H13.3552C13.4223 26.6881 13.4727 26.744 13.4727 26.8055V28.1984C13.4727 28.2655 13.4167 28.3159 13.3552 28.3159H3.8269C3.75976 28.3159 3.70941 28.2599 3.70941 28.1984L3.70381 28.1928Z" fill="#581000"/>
<path d="M13.366 28.3942H3.82658C3.71468 28.3942 3.61956 28.3047 3.61956 28.1873V26.7944C3.61956 26.7944 3.60278 26.7609 3.58599 26.7609H2.19284C2.08094 26.7609 1.98583 26.6714 1.98583 26.5539V25.161C1.98583 25.161 1.96904 25.1275 1.95226 25.1275H0.570296C0.458396 25.1275 0.363281 25.038 0.363281 24.9205V21.8999C0.363281 21.788 0.452801 21.6929 0.570296 21.6929H1.95226C1.95226 21.6929 1.98583 21.6762 1.98583 21.6594V20.2665C1.98583 20.1547 2.07535 20.0596 2.19284 20.0596H3.58599C3.69789 20.0596 3.79301 20.1491 3.79301 20.2665V24.9205C3.79301 24.9205 3.80979 24.9541 3.82658 24.9541H5.21973C5.33163 24.9541 5.42674 25.0436 5.42674 25.161V26.5539C5.42674 26.5539 5.44353 26.5874 5.46031 26.5874H13.3716C13.4835 26.5874 13.5786 26.6769 13.5786 26.7944V28.1873C13.5786 28.2991 13.4891 28.3942 13.3716 28.3942H13.366ZM0.570296 21.8719C0.570296 21.8719 0.536726 21.8887 0.536726 21.9055V24.9261C0.536726 24.9261 0.553511 24.9597 0.570296 24.9597H1.95226C2.06416 24.9597 2.15927 25.0492 2.15927 25.1666V26.5595C2.15927 26.5595 2.17606 26.593 2.19284 26.593H3.58599C3.69789 26.593 3.79301 26.6825 3.79301 26.8V28.1928C3.79301 28.1928 3.80979 28.2264 3.82658 28.2264H13.366C13.366 28.2264 13.3996 28.2096 13.3996 28.1928V26.8C13.3996 26.8 13.3828 26.7664 13.366 26.7664H5.45472C5.34282 26.7664 5.2477 26.6769 5.2477 26.5595V25.1666C5.2477 25.1666 5.23092 25.1331 5.21413 25.1331H3.82098C3.70908 25.1331 3.61397 25.0436 3.61397 24.9261V20.2721C3.61397 20.2721 3.59718 20.2386 3.5804 20.2386H2.18725C2.18725 20.2386 2.15368 20.2553 2.15368 20.2721V21.665C2.15368 21.7768 2.06416 21.8719 1.94666 21.8719H0.570296Z" fill="#581000"/>
<path d="M16.4776 0.85083H3.67065C3.60351 0.85083 3.55316 0.906767 3.55316 0.968298V2.36114C3.55316 2.42826 3.49721 2.4786 3.43566 2.4786H2.04251C1.97537 2.4786 1.92502 2.53454 1.92502 2.59607V3.98891C1.92502 4.05603 1.86907 4.10638 1.80752 4.10638H0.41437C0.34723 4.10638 0.296875 4.16232 0.296875 4.22385V8.86664C0.296875 8.93376 0.352825 8.98411 0.41437 8.98411H1.79633C1.86347 8.98411 1.91383 9.04004 1.91383 9.10157V10.4944C1.91383 10.5615 1.96978 10.6119 2.03132 10.6119H3.42447C3.49161 10.6119 3.54197 10.6678 3.54197 10.7293V12.1222C3.54197 12.1893 3.59792 12.2397 3.65946 12.2397H11.5708C11.6379 12.2397 11.6883 12.1837 11.6883 12.1222V10.7293C11.6883 10.6622 11.7442 10.6119 11.8058 10.6119H13.1989C13.2661 10.6119 13.3164 10.5559 13.3164 10.4944V9.10157C13.3164 9.03445 13.3724 8.98411 13.4339 8.98411H14.8271C14.8942 8.98411 14.9445 8.92817 14.9445 8.86664V4.23503C14.9445 4.16791 14.8886 4.11757 14.8271 4.11757H13.4339C13.3668 4.11757 13.3164 4.06163 13.3164 4.0001V2.60726C13.3164 2.54013 13.3724 2.48979 13.4339 2.48979H16.4552C16.5223 2.48979 16.5727 2.43385 16.5727 2.37232V0.973892C16.5727 0.906767 16.5167 0.856424 16.4552 0.856424L16.4776 0.85083ZM11.6995 8.87783C11.6995 8.94495 11.6435 8.99529 11.582 8.99529H10.2C10.1329 8.99529 10.0825 9.05123 10.0825 9.11276V10.5056C10.0825 10.5727 10.0266 10.6231 9.96501 10.6231H5.30998C5.24284 10.6231 5.19249 10.5671 5.19249 10.5056V9.11276C5.19249 9.04564 5.13654 8.99529 5.07499 8.99529H3.68184C3.6147 8.99529 3.56435 8.93936 3.56435 8.87783V4.23503C3.56435 4.16791 3.6203 4.11757 3.68184 4.11757H5.07499C5.14213 4.11757 5.19249 4.06163 5.19249 4.0001V2.60726C5.19249 2.54013 5.24844 2.48979 5.30998 2.48979H9.96501C10.0321 2.48979 10.0825 2.54573 10.0825 2.60726V4.0001C10.0825 4.06722 10.1385 4.11757 10.2 4.11757H11.582C11.6491 4.11757 11.6995 4.1735 11.6995 4.23503V8.87783Z" fill="#581000"/>
<path d="M11.5816 12.3515H3.67033C3.55843 12.3515 3.46331 12.262 3.46331 12.1445V10.7516C3.46331 10.7516 3.44653 10.7181 3.42974 10.7181H2.03659C1.92469 10.7181 1.82958 10.6286 1.82958 10.5111V9.11828C1.82958 9.11828 1.81279 9.08472 1.79601 9.08472H0.414046C0.302146 9.08472 0.207031 8.99522 0.207031 8.87775V4.23496C0.207031 4.12308 0.296551 4.02799 0.414046 4.02799H1.79601C1.79601 4.02799 1.82958 4.01121 1.82958 3.99443V2.60159C1.82958 2.48971 1.9191 2.39462 2.03659 2.39462H3.42974C3.42974 2.39462 3.46331 2.37784 3.46331 2.36106V0.973814C3.46331 0.861939 3.55843 0.766846 3.67033 0.766846H16.4772C16.5891 0.766846 16.6843 0.856345 16.6843 0.973814V2.36665C16.6843 2.47853 16.5947 2.57362 16.4772 2.57362H13.456C13.456 2.57362 13.4224 2.5904 13.4224 2.60718V4.00002C13.4224 4.00002 13.4392 4.03358 13.456 4.03358H14.8491C14.961 4.03358 15.0561 4.12308 15.0561 4.24055V8.88334C15.0561 8.99522 14.9666 9.09031 14.8491 9.09031H13.456C13.456 9.09031 13.4224 9.10709 13.4224 9.12387V10.5167C13.4224 10.6286 13.3329 10.7237 13.2154 10.7237H11.8222C11.8222 10.7237 11.7887 10.7405 11.7887 10.7572V12.1501C11.7887 12.262 11.6991 12.357 11.5816 12.357V12.3515ZM0.414046 4.20139C0.414046 4.20139 0.380476 4.21817 0.380476 4.23496V8.87775C0.380476 8.87775 0.397261 8.91131 0.414046 8.91131H1.79601C1.90791 8.91131 2.00302 9.00081 2.00302 9.11828V10.5111C2.00302 10.5111 2.01981 10.5447 2.03659 10.5447H3.42974C3.54164 10.5447 3.63676 10.6342 3.63676 10.7516V12.1445C3.63676 12.1445 3.65354 12.178 3.67033 12.178H11.5816C11.5816 12.178 11.6152 12.1613 11.6152 12.1445V10.7516C11.6152 10.6398 11.7047 10.5447 11.8222 10.5447H13.2154C13.2154 10.5447 13.2489 10.5279 13.2489 10.5111V9.11828C13.2489 9.0064 13.3385 8.91131 13.456 8.91131H14.8491C14.8491 8.91131 14.8827 8.89453 14.8827 8.87775V4.23496C14.8827 4.23496 14.8659 4.20139 14.8491 4.20139H13.456C13.3441 4.20139 13.2489 4.11189 13.2489 3.99443V2.60159C13.2489 2.48971 13.3385 2.39462 13.456 2.39462H16.4772C16.4772 2.39462 16.5108 2.37784 16.5108 2.36106V0.973814C16.5108 0.973814 16.494 0.940251 16.4772 0.940251H3.67033C3.67033 0.940251 3.63676 0.957032 3.63676 0.973814V2.36665C3.63676 2.47853 3.54724 2.57362 3.42974 2.57362H2.03659C2.03659 2.57362 2.00302 2.5904 2.00302 2.60718V4.00002C2.00302 4.11189 1.9135 4.20699 1.79601 4.20699H0.414046V4.20139ZM9.95909 10.7181H5.30406C5.19216 10.7181 5.09705 10.6286 5.09705 10.5111V9.11828C5.09705 9.11828 5.08026 9.08472 5.06348 9.08472H3.67033C3.55843 9.08472 3.46331 8.99522 3.46331 8.87775V4.23496C3.46331 4.12308 3.55283 4.02799 3.67033 4.02799H5.06348C5.06348 4.02799 5.09705 4.01121 5.09705 3.99443V2.60159C5.09705 2.48971 5.18657 2.39462 5.30406 2.39462H9.95909C10.071 2.39462 10.1661 2.48412 10.1661 2.60159V3.99443C10.1661 3.99443 10.1829 4.02799 10.1997 4.02799H11.5816C11.6935 4.02799 11.7887 4.11749 11.7887 4.23496V8.87775C11.7887 8.98962 11.6991 9.08472 11.5816 9.08472H10.1997C10.1997 9.08472 10.1661 9.1015 10.1661 9.11828V10.5111C10.1661 10.623 10.0766 10.7181 9.95909 10.7181ZM3.67033 4.20139C3.67033 4.20139 3.63676 4.21817 3.63676 4.23496V8.87775C3.63676 8.87775 3.65354 8.91131 3.67033 8.91131H5.06348C5.17538 8.91131 5.27049 9.00081 5.27049 9.11828V10.5111C5.27049 10.5111 5.28728 10.5447 5.30406 10.5447H9.95909C9.95909 10.5447 9.99266 10.5279 9.99266 10.5111V9.11828C9.99266 9.0064 10.0822 8.91131 10.1997 8.91131H11.5816C11.5816 8.91131 11.6152 8.89453 11.6152 8.87775V4.23496C11.6152 4.23496 11.5984 4.20139 11.5816 4.20139H10.1997C10.0878 4.20139 9.99266 4.11189 9.99266 3.99443V2.60159C9.99266 2.60159 9.97587 2.56803 9.95909 2.56803H5.30406C5.30406 2.56803 5.27049 2.58481 5.27049 2.60159V3.99443C5.27049 4.1063 5.18097 4.20139 5.06348 4.20139H3.67033Z" fill="#581000"/>
<path d="M14.8483 25.2952H13.4495C13.3846 25.2952 13.332 25.3478 13.332 25.4126V26.8111C13.332 26.8759 13.3846 26.9285 13.4495 26.9285H14.8483C14.9132 26.9285 14.9658 26.8759 14.9658 26.8111V25.4126C14.9658 25.3478 14.9132 25.2952 14.8483 25.2952Z" fill="#581000"/>
<path d="M14.8424 27.0126H13.4492C13.3373 27.0126 13.2422 26.9231 13.2422 26.8056V25.4128C13.2422 25.3009 13.3317 25.2058 13.4492 25.2058H14.8424C14.9543 25.2058 15.0494 25.2953 15.0494 25.4128V26.8056C15.0494 26.9175 14.9598 27.0126 14.8424 27.0126ZM13.4492 25.3848C13.4492 25.3848 13.4156 25.4016 13.4156 25.4184V26.8112C13.4156 26.8112 13.4324 26.8448 13.4492 26.8448H14.8424C14.8424 26.8448 14.8759 26.828 14.8759 26.8112V25.4184C14.8759 25.4184 14.8591 25.3848 14.8424 25.3848H13.4492Z" fill="#581000"/>
<path d="M22.5876 18.7787C22.4534 18.7787 22.347 18.6724 22.347 18.5382V17.3971C22.347 17.2628 22.2407 17.1565 22.1065 17.1565H20.9539C20.8196 17.1565 20.7133 17.0503 20.7133 16.916V15.7637C20.7133 15.6295 20.607 15.5232 20.4727 15.5232H19.3202C19.1859 15.5232 19.0796 15.4169 19.0796 15.2826V12.497C19.0796 12.3627 18.9733 12.2564 18.839 12.2564H17.6976C17.5633 12.2564 17.457 12.1502 17.457 12.0159V7.60805C17.457 7.4738 17.5633 7.36752 17.6976 7.36752H18.839C18.9733 7.36752 19.0796 7.26124 19.0796 7.12699V4.34131C19.0796 4.20707 19.1859 4.10078 19.3202 4.10078H20.4727C20.607 4.10078 20.7133 4.20707 20.7133 4.34131V5.49362C20.7133 5.62787 20.8196 5.73415 20.9539 5.73415H30.2584C30.3926 5.73415 30.4989 5.62787 30.4989 5.49362V4.34131C30.4989 4.20707 30.3926 4.10078 30.2584 4.10078H29.1058C28.9715 4.10078 28.8652 3.9945 28.8652 3.86025V2.70795C28.8652 2.5737 28.7589 2.46742 28.6246 2.46742H22.5876C22.4534 2.46742 22.347 2.36114 22.347 2.22689V1.09136C22.347 0.957111 22.4534 0.85083 22.5876 0.85083H30.2584C30.3926 0.85083 30.4989 0.957111 30.4989 1.09136V2.24367C30.4989 2.37792 30.6052 2.4842 30.7395 2.4842H31.8921C32.0264 2.4842 32.1327 2.59048 32.1327 2.72473V3.87704C32.1327 4.01128 32.239 4.11757 32.3733 4.11757H33.5258C33.6601 4.11757 33.7664 4.22385 33.7664 4.3581V7.14377C33.7664 7.27802 33.6601 7.3843 33.5258 7.3843H20.9595C20.8252 7.3843 20.7189 7.49058 20.7189 7.62483V12.0327C20.7189 12.1669 20.8252 12.2732 20.9595 12.2732H22.1121C22.2463 12.2732 22.3526 12.3795 22.3526 12.5137V15.2994C22.3526 15.4337 22.4589 15.54 22.5932 15.54H23.7458C23.8801 15.54 23.9864 15.6462 23.9864 15.7805V16.9328C23.9864 17.067 24.0927 17.1733 24.227 17.1733H30.264C30.3982 17.1733 30.5045 17.2796 30.5045 17.4139V18.555C30.5045 18.6892 30.3982 18.7955 30.264 18.7955H22.5932L22.5876 18.7787ZM20.9595 4.11757C20.8252 4.11757 20.7189 4.01128 20.7189 3.87704V2.72473C20.7189 2.59048 20.8252 2.4842 20.9595 2.4842H22.1121C22.2463 2.4842 22.3526 2.59048 22.3526 2.72473V3.87704C22.3526 4.01128 22.2463 4.11757 22.1121 4.11757H20.9595ZM30.7395 17.1621C30.6052 17.1621 30.4989 17.0559 30.4989 16.9216V15.7693C30.4989 15.635 30.6052 15.5288 30.7395 15.5288H31.8921C32.0264 15.5288 32.1327 15.635 32.1327 15.7693V16.9216C32.1327 17.0559 32.0264 17.1621 31.8921 17.1621H30.7395ZM32.3733 15.5288C32.239 15.5288 32.1327 15.4225 32.1327 15.2882V14.1359C32.1327 14.0017 32.239 13.8954 32.3733 13.8954H33.5258C33.6601 13.8954 33.7664 14.0017 33.7664 14.1359V15.2882C33.7664 15.4225 33.6601 15.5288 33.5258 15.5288H32.3733Z" fill="#581000"/>
<path d="M30.2603 18.8681H22.5895C22.4105 18.8681 22.265 18.7227 22.265 18.5437V17.4026C22.265 17.3187 22.1979 17.246 22.1084 17.246H20.9558C20.7768 17.246 20.6313 17.1005 20.6313 16.9215V15.7692C20.6313 15.6853 20.5641 15.6126 20.4746 15.6126H19.3221C19.143 15.6126 18.9975 15.4672 18.9975 15.2882V12.5025C18.9975 12.4186 18.9304 12.3459 18.8409 12.3459H17.6995C17.5205 12.3459 17.375 12.2004 17.375 12.0214V7.61357C17.375 7.43457 17.5205 7.28913 17.6995 7.28913H18.8409C18.9248 7.28913 18.9975 7.222 18.9975 7.13251V4.34683C18.9975 4.16783 19.143 4.02239 19.3221 4.02239H20.4746C20.6537 4.02239 20.7991 4.16783 20.7991 4.34683V5.49914C20.7991 5.58304 20.8663 5.65576 20.9558 5.65576H30.2603C30.3442 5.65576 30.4169 5.58864 30.4169 5.49914V4.34683C30.4169 4.26292 30.3498 4.19021 30.2603 4.19021H29.1077C28.9286 4.19021 28.7832 4.04477 28.7832 3.86577V2.71346C28.7832 2.62956 28.716 2.55684 28.6265 2.55684H22.5895C22.4105 2.55684 22.265 2.4114 22.265 2.2324V1.09128C22.265 0.912283 22.4105 0.766846 22.5895 0.766846H30.2603C30.4393 0.766846 30.5848 0.912283 30.5848 1.09128V2.24359C30.5848 2.3275 30.6519 2.40021 30.7414 2.40021H31.894C32.073 2.40021 32.2185 2.54565 32.2185 2.72465V3.87696C32.2185 3.96086 32.2856 4.03358 32.3752 4.03358H33.5277C33.7068 4.03358 33.8522 4.17902 33.8522 4.35802V7.14369C33.8522 7.32269 33.7068 7.46813 33.5277 7.46813H20.9614C20.8775 7.46813 20.8047 7.53525 20.8047 7.62475V12.0326C20.8047 12.1165 20.8719 12.1892 20.9614 12.1892H22.114C22.293 12.1892 22.4385 12.3347 22.4385 12.5137V15.2993C22.4385 15.3833 22.5056 15.456 22.5951 15.456H23.7477C23.9267 15.456 24.0722 15.6014 24.0722 15.7804V16.9327C24.0722 17.0166 24.1393 17.0893 24.2289 17.0893H30.2658C30.4449 17.0893 30.5904 17.2348 30.5904 17.4138V18.5549C30.5904 18.7339 30.4449 18.8793 30.2658 18.8793L30.2603 18.8681ZM17.7051 7.46254C17.6212 7.46254 17.5484 7.52966 17.5484 7.61916V12.027C17.5484 12.1109 17.6156 12.1836 17.7051 12.1836H18.8465C19.0255 12.1836 19.171 12.3291 19.171 12.5081V15.2938C19.171 15.3777 19.2381 15.4504 19.3277 15.4504H20.4802C20.6593 15.4504 20.8047 15.5958 20.8047 15.7748V16.9271C20.8047 17.011 20.8719 17.0837 20.9614 17.0837H22.114C22.293 17.0837 22.4385 17.2292 22.4385 17.4082V18.5493C22.4385 18.6332 22.5056 18.7059 22.5951 18.7059H30.2658C30.3498 18.7059 30.4225 18.6388 30.4225 18.5493V17.4082C30.4225 17.3243 30.3554 17.2516 30.2658 17.2516H24.2289C24.0498 17.2516 23.9043 17.1061 23.9043 16.9271V15.7748C23.9043 15.6909 23.8372 15.6182 23.7477 15.6182H22.5951C22.4161 15.6182 22.2706 15.4727 22.2706 15.2938V12.5081C22.2706 12.4242 22.2035 12.3515 22.114 12.3515H20.9614C20.7823 12.3515 20.6369 12.206 20.6369 12.027V7.61916C20.6369 7.44016 20.7823 7.29472 20.9614 7.29472H33.5277C33.6116 7.29472 33.6844 7.2276 33.6844 7.1381V4.35242C33.6844 4.26852 33.6172 4.1958 33.5277 4.1958H32.3752C32.1961 4.1958 32.0506 4.05036 32.0506 3.87136V2.71906C32.0506 2.63515 31.9835 2.56243 31.894 2.56243H30.7414C30.5624 2.56243 30.4169 2.41699 30.4169 2.238V1.09128C30.4169 1.00738 30.3498 0.934657 30.2603 0.934657H22.5895C22.5056 0.934657 22.4329 1.00178 22.4329 1.09128V2.24359C22.4329 2.3275 22.5 2.40021 22.5895 2.40021H28.6265C28.8056 2.40021 28.951 2.54565 28.951 2.72465V3.87696C28.951 3.96086 29.0182 4.03358 29.1077 4.03358H30.2603C30.4393 4.03358 30.5848 4.17902 30.5848 4.35802V5.51032C30.5848 5.68932 30.4393 5.83476 30.2603 5.83476H20.9558C20.7768 5.83476 20.6313 5.68932 20.6313 5.51032V4.35802C20.6313 4.27411 20.5641 4.20139 20.4746 4.20139H19.3221C19.2381 4.20139 19.1654 4.26852 19.1654 4.35802V7.14369C19.1654 7.32269 19.0199 7.46813 18.8409 7.46813H17.6995L17.7051 7.46254ZM31.894 17.246H30.7414C30.5624 17.246 30.4169 17.1005 30.4169 16.9215V15.7692C30.4169 15.5902 30.5624 15.4448 30.7414 15.4448H31.894C32.073 15.4448 32.2185 15.5902 32.2185 15.7692V16.9215C32.2185 17.1005 32.073 17.246 31.894 17.246ZM30.7414 15.6126C30.6575 15.6126 30.5848 15.6797 30.5848 15.7692V16.9215C30.5848 17.0054 30.6519 17.0781 30.7414 17.0781H31.894C31.9779 17.0781 32.0506 17.011 32.0506 16.9215V15.7692C32.0506 15.6853 31.9835 15.6126 31.894 15.6126H30.7414ZM33.5277 15.6126H32.3752C32.1961 15.6126 32.0506 15.4672 32.0506 15.2882V14.1358C32.0506 13.9569 32.1961 13.8114 32.3752 13.8114H33.5277C33.7068 13.8114 33.8522 13.9569 33.8522 14.1358V15.2882C33.8522 15.4672 33.7068 15.6126 33.5277 15.6126ZM32.3752 13.9792C32.2912 13.9792 32.2185 14.0463 32.2185 14.1358V15.2882C32.2185 15.3721 32.2856 15.4448 32.3752 15.4448H33.5277C33.6116 15.4448 33.6844 15.3777 33.6844 15.2882V14.1358C33.6844 14.0519 33.6172 13.9792 33.5277 13.9792H32.3752ZM22.114 4.20139H20.9614C20.7823 4.20139 20.6369 4.05596 20.6369 3.87696V2.72465C20.6369 2.54565 20.7823 2.40021 20.9614 2.40021H22.114C22.293 2.40021 22.4385 2.54565 22.4385 2.72465V3.87696C22.4385 4.05596 22.293 4.20139 22.114 4.20139ZM20.9614 2.56803C20.8775 2.56803 20.8047 2.63515 20.8047 2.72465V3.87696C20.8047 3.96086 20.8719 4.03358 20.9614 4.03358H22.114C22.1979 4.03358 22.2706 3.96646 22.2706 3.87696V2.72465C22.2706 2.64074 22.2035 2.56803 22.114 2.56803H20.9614Z" fill="#581000"/>
<path d="M40.4681 0.85083C40.6024 0.85083 40.7087 0.957111 40.7087 1.09136V2.24367C40.7087 2.37792 40.815 2.4842 40.9492 2.4842H42.1018C42.2361 2.4842 42.3424 2.59048 42.3424 2.72473V3.87704C42.3424 4.01128 42.2361 4.11757 42.1018 4.11757H40.9492C40.815 4.11757 40.7087 4.22385 40.7087 4.3581V16.9216C40.7087 17.0559 40.815 17.1621 40.9492 17.1621H42.1018C42.2361 17.1621 42.3424 17.2684 42.3424 17.4027V18.5438C42.3424 18.678 42.2361 18.7843 42.1018 18.7843H36.2718C36.1376 18.7843 36.0312 18.678 36.0312 18.5438V17.4027C36.0312 17.2684 36.1376 17.1621 36.2718 17.1621H37.4132C37.5475 17.1621 37.6538 17.0559 37.6538 16.9216V4.3525C37.6538 4.21825 37.5475 4.11197 37.4132 4.11197H36.2718C36.1376 4.11197 36.0312 4.00569 36.0312 3.87144V2.71913C36.0312 2.58488 36.1376 2.4786 36.2718 2.4786H37.4132C37.5475 2.4786 37.6538 2.37232 37.6538 2.23807V1.09136C37.6538 0.957111 37.7601 0.85083 37.8944 0.85083H38.8343C38.9686 0.85083 39.1812 0.85083 39.3155 0.85083H40.4681ZM48.2787 18.7787C48.1444 18.7787 48.0381 18.6724 48.0381 18.5382V17.3971C48.0381 17.2628 48.1444 17.1565 48.2787 17.1565H49.4312C49.5655 17.1565 49.6718 17.0503 49.6718 16.916V4.3525C49.6718 4.21825 49.5655 4.11197 49.4312 4.11197H48.2787C48.1444 4.11197 48.0381 4.00569 48.0381 3.87144V2.71913C48.0381 2.58488 47.9318 2.4786 47.7975 2.4786H42.5774C42.4431 2.4786 42.3368 2.37232 42.3368 2.23807V1.09136C42.3368 0.957111 42.4431 0.85083 42.5774 0.85083H49.4312C49.5655 0.85083 49.6718 0.957111 49.6718 1.09136V2.24367C49.6718 2.37792 49.7781 2.4842 49.9124 2.4842H51.065C51.1993 2.4842 51.3056 2.59048 51.3056 2.72473V3.87704C51.3056 4.01128 51.4119 4.11757 51.5461 4.11757H52.4861C52.6204 4.11757 52.7267 4.22385 52.7267 4.3581V16.9216C52.7267 17.0559 52.833 17.1621 52.9673 17.1621H54.1198C54.2541 17.1621 54.3604 17.2684 54.3604 17.4027V18.5438C54.3604 18.678 54.2541 18.7843 54.1198 18.7843H48.2843L48.2787 18.7787Z" fill="#581000"/>
<path d="M54.1195 18.8681H48.2839C48.1049 18.8681 47.9594 18.7227 47.9594 18.5437V17.4026C47.9594 17.2236 48.1049 17.0781 48.2839 17.0781H49.4365C49.5204 17.0781 49.5932 17.011 49.5932 16.9215V4.35242C49.5932 4.26852 49.526 4.1958 49.4365 4.1958H48.2839C48.1049 4.1958 47.9594 4.05036 47.9594 3.87136V2.71906C47.9594 2.63515 47.8923 2.56243 47.8028 2.56243H42.5827C42.4036 2.56243 42.2581 2.41699 42.2581 2.238V1.09128C42.2581 0.912283 42.4036 0.766846 42.5827 0.766846H49.4365C49.6156 0.766846 49.761 0.912283 49.761 1.09128V2.24359C49.761 2.3275 49.8282 2.40021 49.9177 2.40021H51.0702C51.2493 2.40021 51.3948 2.54565 51.3948 2.72465V3.87696C51.3948 3.96086 51.4619 4.03358 51.5514 4.03358H52.4914C52.6704 4.03358 52.8159 4.17902 52.8159 4.35802V16.9215C52.8159 17.0054 52.883 17.0781 52.9725 17.0781H54.1251C54.3041 17.0781 54.4496 17.2236 54.4496 17.4026V18.5437C54.4496 18.7227 54.3041 18.8681 54.1251 18.8681H54.1195ZM48.2783 17.246C48.1944 17.246 48.1217 17.3131 48.1217 17.4026V18.5437C48.1217 18.6276 48.1888 18.7003 48.2783 18.7003H54.1139C54.1978 18.7003 54.2706 18.6332 54.2706 18.5437V17.4026C54.2706 17.3187 54.2034 17.246 54.1139 17.246H52.9614C52.7823 17.246 52.6368 17.1005 52.6368 16.9215V4.35242C52.6368 4.26852 52.5697 4.1958 52.4802 4.1958H51.5402C51.3612 4.1958 51.2157 4.05036 51.2157 3.87136V2.71906C51.2157 2.63515 51.1486 2.56243 51.0591 2.56243H49.9065C49.7274 2.56243 49.582 2.41699 49.582 2.238V1.09128C49.582 1.00738 49.5148 0.934657 49.4253 0.934657H42.5715C42.4875 0.934657 42.4148 1.00178 42.4148 1.09128V2.24359C42.4148 2.3275 42.4819 2.40021 42.5715 2.40021H47.7916C47.9706 2.40021 48.1161 2.54565 48.1161 2.72465V3.87696C48.1161 3.96086 48.1832 4.03358 48.2728 4.03358H49.4253C49.6044 4.03358 49.7498 4.17902 49.7498 4.35802V16.9215C49.7498 17.1005 49.6044 17.246 49.4253 17.246H48.2728H48.2783ZM42.0959 18.8681H36.2659C36.0869 18.8681 35.9414 18.7227 35.9414 18.5437V17.4026C35.9414 17.2236 36.0869 17.0781 36.2659 17.0781H37.4073C37.4912 17.0781 37.564 17.011 37.564 16.9215V4.35242C37.564 4.26852 37.4968 4.1958 37.4073 4.1958H36.2659C36.0869 4.1958 35.9414 4.05036 35.9414 3.87136V2.71906C35.9414 2.54006 36.0869 2.39462 36.2659 2.39462H37.4073C37.4912 2.39462 37.564 2.3275 37.564 2.238V1.09128C37.564 0.912283 37.7094 0.766846 37.8885 0.766846H40.4622C40.6412 0.766846 40.7867 0.912283 40.7867 1.09128V2.24359C40.7867 2.3275 40.8538 2.40021 40.9433 2.40021H42.0959C42.2749 2.40021 42.4204 2.54565 42.4204 2.72465V3.87696C42.4204 4.05596 42.2749 4.20139 42.0959 4.20139H40.9433C40.8594 4.20139 40.7867 4.26852 40.7867 4.35802V16.9215C40.7867 17.0054 40.8538 17.0781 40.9433 17.0781H42.0959C42.2749 17.0781 42.4204 17.2236 42.4204 17.4026V18.5437C42.4204 18.7227 42.2749 18.8681 42.0959 18.8681ZM36.2715 17.246C36.1876 17.246 36.1149 17.3131 36.1149 17.4026V18.5437C36.1149 18.6276 36.182 18.7003 36.2715 18.7003H42.1015C42.1854 18.7003 42.2581 18.6332 42.2581 18.5437V17.4026C42.2581 17.3187 42.191 17.246 42.1015 17.246H40.9489C40.7699 17.246 40.6244 17.1005 40.6244 16.9215V4.35242C40.6244 4.17342 40.7699 4.02799 40.9489 4.02799H42.1015C42.1854 4.02799 42.2581 3.96086 42.2581 3.87136V2.71906C42.2581 2.63515 42.191 2.56243 42.1015 2.56243H40.9489C40.7699 2.56243 40.6244 2.41699 40.6244 2.238V1.09128C40.6244 1.00738 40.5573 0.934657 40.4678 0.934657H37.8941C37.8101 0.934657 37.7374 1.00738 37.7374 1.09128V2.24359C37.7374 2.42259 37.5919 2.56803 37.4129 2.56803H36.2715C36.1876 2.56803 36.1149 2.63515 36.1149 2.72465V3.87696C36.1149 3.96086 36.182 4.03358 36.2715 4.03358H37.4129C37.5919 4.03358 37.7374 4.17902 37.7374 4.35802V16.9215C37.7374 17.1005 37.5919 17.246 37.4129 17.246H36.2715Z" fill="#581000"/>
<path d="M94.0228 0.85083C94.157 0.85083 94.2633 0.957111 94.2633 1.09136V2.24367C94.2633 2.37792 94.3697 2.4842 94.5039 2.4842H95.6565C95.7908 2.4842 95.8971 2.59048 95.8971 2.72473V3.87704C95.8971 4.01128 95.7908 4.11757 95.6565 4.11757H94.5039C94.3697 4.11757 94.2633 4.22385 94.2633 4.3581V16.9216C94.2633 17.0559 94.3697 17.1621 94.5039 17.1621H95.6565C95.7908 17.1621 95.8971 17.2684 95.8971 17.4027V18.5438C95.8971 18.678 95.7908 18.7843 95.6565 18.7843H89.8265C89.6922 18.7843 89.5859 18.678 89.5859 18.5438V17.4027C89.5859 17.2684 89.6922 17.1621 89.8265 17.1621H90.9679C91.1022 17.1621 91.2085 17.0559 91.2085 16.9216V4.3525C91.2085 4.21825 91.1022 4.11197 90.9679 4.11197H89.8265C89.6922 4.11197 89.5859 4.00569 89.5859 3.87144V2.71913C89.5859 2.58488 89.6922 2.4786 89.8265 2.4786H90.9679C91.1022 2.4786 91.2085 2.37232 91.2085 2.23807V1.09136C91.2085 0.957111 91.3148 0.85083 91.4491 0.85083H92.389C92.5233 0.85083 92.7359 0.85083 92.8702 0.85083H94.0228ZM101.839 18.7787C101.705 18.7787 101.598 18.6724 101.598 18.5382V17.3971C101.598 17.2628 101.705 17.1565 101.839 17.1565H102.992C103.126 17.1565 103.232 17.0503 103.232 16.916V4.3525C103.232 4.21825 103.126 4.11197 102.992 4.11197H101.839C101.705 4.11197 101.598 4.00569 101.598 3.87144V2.71913C101.598 2.58488 101.492 2.4786 101.358 2.4786H96.1377C96.0034 2.4786 95.8971 2.37232 95.8971 2.23807V1.09136C95.8971 0.957111 96.0034 0.85083 96.1377 0.85083H102.992C103.126 0.85083 103.232 0.957111 103.232 1.09136V2.24367C103.232 2.37792 103.338 2.4842 103.473 2.4842H104.625C104.76 2.4842 104.866 2.59048 104.866 2.72473V3.87704C104.866 4.01128 104.972 4.11757 105.106 4.11757H106.046C106.181 4.11757 106.287 4.22385 106.287 4.3581V16.9216C106.287 17.0559 106.393 17.1621 106.528 17.1621H107.68C107.814 17.1621 107.921 17.2684 107.921 17.4027V18.5438C107.921 18.678 107.814 18.7843 107.68 18.7843H101.845L101.839 18.7787Z" fill="#581000"/>
<path d="M107.676 18.8681H101.841C101.662 18.8681 101.516 18.7227 101.516 18.5437V17.4026C101.516 17.2236 101.662 17.0781 101.841 17.0781H102.993C103.077 17.0781 103.15 17.011 103.15 16.9215V4.35242C103.15 4.26852 103.083 4.1958 102.993 4.1958H101.841C101.662 4.1958 101.516 4.05036 101.516 3.87136V2.71906C101.516 2.63515 101.449 2.56243 101.36 2.56243H96.1396C95.9605 2.56243 95.815 2.41699 95.815 2.238V1.09128C95.815 0.912283 95.9605 0.766846 96.1396 0.766846H102.993C103.172 0.766846 103.318 0.912283 103.318 1.09128V2.24359C103.318 2.3275 103.385 2.40021 103.475 2.40021H104.627C104.806 2.40021 104.952 2.54565 104.952 2.72465V3.87696C104.952 3.96086 105.019 4.03358 105.108 4.03358H106.048C106.227 4.03358 106.373 4.17902 106.373 4.35802V16.9215C106.373 17.0054 106.44 17.0781 106.529 17.0781H107.682C107.861 17.0781 108.007 17.2236 108.007 17.4026V18.5437C108.007 18.7227 107.861 18.8681 107.682 18.8681H107.676ZM101.841 17.246C101.757 17.246 101.684 17.3131 101.684 17.4026V18.5437C101.684 18.6276 101.751 18.7003 101.841 18.7003H107.676C107.76 18.7003 107.833 18.6332 107.833 18.5437V17.4026C107.833 17.3187 107.766 17.246 107.676 17.246H106.524C106.345 17.246 106.199 17.1005 106.199 16.9215V4.35242C106.199 4.26852 106.132 4.1958 106.043 4.1958H105.103C104.924 4.1958 104.778 4.05036 104.778 3.87136V2.71906C104.778 2.63515 104.711 2.56243 104.622 2.56243H103.469C103.29 2.56243 103.144 2.41699 103.144 2.238V1.09128C103.144 1.00738 103.077 0.934657 102.988 0.934657H96.134C96.05 0.934657 95.9773 1.00178 95.9773 1.09128V2.24359C95.9773 2.3275 96.0444 2.40021 96.134 2.40021H101.354C101.533 2.40021 101.679 2.54565 101.679 2.72465V3.87696C101.679 3.96086 101.746 4.03358 101.835 4.03358H102.988C103.167 4.03358 103.312 4.17902 103.312 4.35802V16.9215C103.312 17.1005 103.167 17.246 102.988 17.246H101.835H101.841ZM95.6584 18.8681H89.8284C89.6494 18.8681 89.5039 18.7227 89.5039 18.5437V17.4026C89.5039 17.2236 89.6494 17.0781 89.8284 17.0781H90.9698C91.0537 17.0781 91.1264 17.011 91.1264 16.9215V4.35242C91.1264 4.26852 91.0593 4.1958 90.9698 4.1958H89.8284C89.6494 4.1958 89.5039 4.05036 89.5039 3.87136V2.71906C89.5039 2.54006 89.6494 2.39462 89.8284 2.39462H90.9698C91.0537 2.39462 91.1264 2.3275 91.1264 2.238V1.09128C91.1264 0.912283 91.2719 0.766846 91.451 0.766846H94.0247C94.2037 0.766846 94.3492 0.912283 94.3492 1.09128V2.24359C94.3492 2.3275 94.4163 2.40021 94.5058 2.40021H95.6584C95.8374 2.40021 95.9829 2.54565 95.9829 2.72465V3.87696C95.9829 4.05596 95.8374 4.20139 95.6584 4.20139H94.5058C94.4219 4.20139 94.3492 4.26852 94.3492 4.35802V16.9215C94.3492 17.0054 94.4163 17.0781 94.5058 17.0781H95.6584C95.8374 17.0781 95.9829 17.2236 95.9829 17.4026V18.5437C95.9829 18.7227 95.8374 18.8681 95.6584 18.8681ZM89.8284 17.246C89.7445 17.246 89.6718 17.3131 89.6718 17.4026V18.5437C89.6718 18.6276 89.7389 18.7003 89.8284 18.7003H95.6584C95.7423 18.7003 95.815 18.6332 95.815 18.5437V17.4026C95.815 17.3187 95.7479 17.246 95.6584 17.246H94.5058C94.3268 17.246 94.1813 17.1005 94.1813 16.9215V4.35242C94.1813 4.17342 94.3268 4.02799 94.5058 4.02799H95.6584C95.7423 4.02799 95.815 3.96086 95.815 3.87136V2.71906C95.815 2.63515 95.7479 2.56243 95.6584 2.56243H94.5058C94.3268 2.56243 94.1813 2.41699 94.1813 2.238V1.09128C94.1813 1.00738 94.1142 0.934657 94.0247 0.934657H91.451C91.367 0.934657 91.2943 1.00738 91.2943 1.09128V2.24359C91.2943 2.42259 91.1488 2.56803 90.9698 2.56803H89.8284C89.7445 2.56803 89.6718 2.63515 89.6718 2.72465V3.87696C89.6718 3.96086 89.7389 4.03358 89.8284 4.03358H90.9698C91.1488 4.03358 91.2943 4.17902 91.2943 4.35802V16.9215C91.2943 17.1005 91.1488 17.246 90.9698 17.246H89.8284Z" fill="#581000"/>
<path d="M58.2984 18.7787C58.1641 18.7787 58.0578 18.6724 58.0578 18.5382V17.3971C58.0578 17.2628 57.9515 17.1565 57.8172 17.1565H56.6759C56.5416 17.1565 56.4353 17.0503 56.4353 16.916V13.3137C56.4353 13.1794 56.5416 13.0731 56.6759 13.0731H57.8172C57.9515 13.0731 58.0578 13.1794 58.0578 13.3137V15.2826C58.0578 15.4169 58.1641 15.5232 58.2984 15.5232H59.451C59.5853 15.5232 59.6916 15.6295 59.6916 15.7637V16.916C59.6916 17.0503 59.7979 17.1565 59.9321 17.1565H64.3466C64.4809 17.1565 64.5872 17.0503 64.5872 16.916V15.7637C64.5872 15.6295 64.6935 15.5232 64.8278 15.5232H65.9803C66.1146 15.5232 66.2209 15.4169 66.2209 15.2826V12.497C66.2209 12.3627 66.1146 12.2564 65.9803 12.2564H64.8278C64.6935 12.2564 64.5872 12.1502 64.5872 12.0159V10.8636C64.5872 10.7293 64.4809 10.6231 64.3466 10.6231H61.5603C61.426 10.6231 61.3197 10.5168 61.3197 10.3825V9.23023C61.3197 9.09598 61.2134 8.9897 61.0791 8.9897H58.2928C58.1585 8.9897 58.0522 8.88342 58.0522 8.74917V7.60805C58.0522 7.4738 57.9459 7.36752 57.8116 7.36752H56.6703C56.536 7.36752 56.4297 7.26124 56.4297 7.12699V4.34131C56.4297 4.20707 56.536 4.10078 56.6703 4.10078H57.8116C57.9459 4.10078 58.0522 3.9945 58.0522 3.86025V2.70795C58.0522 2.5737 58.1585 2.46742 58.2928 2.46742H59.4454C59.5797 2.46742 59.686 2.5737 59.686 2.70795V5.49362C59.686 5.62787 59.7923 5.73415 59.9266 5.73415H61.0791C61.2134 5.73415 61.3197 5.84043 61.3197 5.97468V7.12699C61.3197 7.26124 61.426 7.36752 61.5603 7.36752H64.3466C64.4809 7.36752 64.5872 7.4738 64.5872 7.60805V8.74917C64.5872 8.88342 64.6935 8.9897 64.8278 8.9897H67.6029C67.7372 8.9897 67.8435 9.09598 67.8435 9.23023V10.3825C67.8435 10.5168 67.9498 10.6231 68.084 10.6231H69.2366C69.3709 10.6231 69.4772 10.7293 69.4772 10.8636V15.277C69.4772 15.4113 69.3709 15.5176 69.2366 15.5176H68.084C67.9498 15.5176 67.8435 15.6239 67.8435 15.7581V16.9104C67.8435 17.0447 67.7372 17.1509 67.6029 17.1509H66.4615C66.3272 17.1509 66.2209 17.2572 66.2209 17.3915V18.5326C66.2209 18.6668 66.1146 18.7731 65.9803 18.7731H58.2984V18.7787ZM67.2672 5.74534C67.1329 5.74534 67.0266 5.63906 67.0266 5.50481V4.3525C67.0266 4.21825 66.9203 4.11197 66.786 4.11197H65.6446C65.5103 4.11197 65.404 4.00569 65.404 3.87144V2.71913C65.404 2.58488 65.2977 2.4786 65.1635 2.4786H59.9321C59.7979 2.4786 59.6916 2.37232 59.6916 2.23807V1.09136C59.6916 0.957111 59.7979 0.85083 59.9321 0.85083H66.786C66.9203 0.85083 67.0266 0.957111 67.0266 1.09136V2.24367C67.0266 2.37792 67.1329 2.4842 67.2672 2.4842H68.4197C68.554 2.4842 68.6603 2.59048 68.6603 2.72473V5.5104C68.6603 5.64465 68.554 5.75093 68.4197 5.75093H67.2672V5.74534Z" fill="#581000"/>
<path d="M65.9822 18.8681H58.3003C58.1213 18.8681 57.9758 18.7227 57.9758 18.5437V17.4026C57.9758 17.3187 57.9087 17.246 57.8191 17.246H56.6778C56.4987 17.246 56.3533 17.1005 56.3533 16.9215V13.3192C56.3533 13.1402 56.4987 12.9947 56.6778 12.9947H57.8191C57.9982 12.9947 58.1436 13.1402 58.1436 13.3192V15.2882C58.1436 15.3721 58.2108 15.4448 58.3003 15.4448H59.4529C59.6319 15.4448 59.7774 15.5902 59.7774 15.7692V16.9215C59.7774 17.0054 59.8445 17.0781 59.934 17.0781H64.3485C64.4324 17.0781 64.5051 17.011 64.5051 16.9215V15.7692C64.5051 15.5902 64.6506 15.4448 64.8297 15.4448H65.9822C66.0661 15.4448 66.1389 15.3777 66.1389 15.2882V12.5025C66.1389 12.4186 66.0717 12.3459 65.9822 12.3459H64.8297C64.6506 12.3459 64.5051 12.2004 64.5051 12.0214V10.8691C64.5051 10.7852 64.438 10.7125 64.3485 10.7125H61.5622C61.3831 10.7125 61.2377 10.5671 61.2377 10.3881V9.23575C61.2377 9.15184 61.1705 9.07912 61.081 9.07912H58.2947C58.1157 9.07912 57.9702 8.93368 57.9702 8.75469V7.61357C57.9702 7.52966 57.9031 7.45694 57.8135 7.45694H56.6722C56.4931 7.45694 56.3477 7.3115 56.3477 7.13251V4.34683C56.3477 4.16783 56.4931 4.02239 56.6722 4.02239H57.8135C57.8975 4.02239 57.9702 3.95527 57.9702 3.86577V2.71346C57.9702 2.53446 58.1157 2.38903 58.2947 2.38903H59.4473C59.6263 2.38903 59.7718 2.53446 59.7718 2.71346V5.49914C59.7718 5.58304 59.8389 5.65576 59.9284 5.65576H61.081C61.2601 5.65576 61.4055 5.8012 61.4055 5.9802V7.13251C61.4055 7.21641 61.4727 7.28913 61.5622 7.28913H64.3485C64.5275 7.28913 64.673 7.43457 64.673 7.61357V8.75469C64.673 8.83859 64.7401 8.91131 64.8297 8.91131H67.6048C67.7838 8.91131 67.9293 9.05675 67.9293 9.23575V10.3881C67.9293 10.472 67.9964 10.5447 68.0859 10.5447H69.2385C69.4175 10.5447 69.563 10.6901 69.563 10.8691V15.2826C69.563 15.4616 69.4175 15.607 69.2385 15.607H68.0859C68.002 15.607 67.9293 15.6741 67.9293 15.7636V16.9159C67.9293 17.0949 67.7838 17.2404 67.6048 17.2404H66.4634C66.3795 17.2404 66.3067 17.3075 66.3067 17.397V18.5381C66.3067 18.7171 66.1613 18.8625 65.9822 18.8625V18.8681ZM56.6778 13.1625C56.5938 13.1625 56.5211 13.2297 56.5211 13.3192V16.9215C56.5211 17.0054 56.5882 17.0781 56.6778 17.0781H57.8191C57.9982 17.0781 58.1436 17.2236 58.1436 17.4026V18.5437C58.1436 18.6276 58.2108 18.7003 58.3003 18.7003H65.9822C66.0661 18.7003 66.1389 18.6332 66.1389 18.5437V17.4026C66.1389 17.2236 66.2844 17.0781 66.4634 17.0781H67.6048C67.6887 17.0781 67.7614 17.011 67.7614 16.9215V15.7692C67.7614 15.5902 67.9069 15.4448 68.0859 15.4448H69.2385C69.3224 15.4448 69.3952 15.3777 69.3952 15.2882V10.8747C69.3952 10.7908 69.328 10.7181 69.2385 10.7181H68.0859C67.9069 10.7181 67.7614 10.5726 67.7614 10.3936V9.24134C67.7614 9.15743 67.6943 9.08472 67.6048 9.08472H64.8297C64.6506 9.08472 64.5051 8.93928 64.5051 8.76028V7.61916C64.5051 7.53525 64.438 7.46254 64.3485 7.46254H61.5622C61.3831 7.46254 61.2377 7.3171 61.2377 7.1381V5.98579C61.2377 5.90189 61.1705 5.82917 61.081 5.82917H59.9284C59.7494 5.82917 59.6039 5.68373 59.6039 5.50473V2.72465C59.6039 2.64074 59.5368 2.56803 59.4473 2.56803H58.2947C58.2108 2.56803 58.1381 2.63515 58.1381 2.72465V3.87696C58.1381 4.05596 57.9926 4.20139 57.8135 4.20139H56.6722C56.5882 4.20139 56.5155 4.26852 56.5155 4.35802V7.14369C56.5155 7.2276 56.5826 7.30032 56.6722 7.30032H57.8135C57.9926 7.30032 58.1381 7.44575 58.1381 7.62475V8.76587C58.1381 8.84978 58.2052 8.9225 58.2947 8.9225H61.081C61.2601 8.9225 61.4055 9.06793 61.4055 9.24693V10.3992C61.4055 10.4831 61.4727 10.5559 61.5622 10.5559H64.3485C64.5275 10.5559 64.673 10.7013 64.673 10.8803V12.0326C64.673 12.1165 64.7401 12.1892 64.8297 12.1892H65.9822C66.1613 12.1892 66.3067 12.3347 66.3067 12.5137V15.2993C66.3067 15.4783 66.1613 15.6238 65.9822 15.6238H64.8297C64.7457 15.6238 64.673 15.6909 64.673 15.7804V16.9327C64.673 17.1117 64.5275 17.2571 64.3485 17.2571H59.934C59.755 17.2571 59.6095 17.1117 59.6095 16.9327V15.7804C59.6095 15.6965 59.5424 15.6238 59.4529 15.6238H58.3003C58.1213 15.6238 57.9758 15.4783 57.9758 15.2993V13.3304C57.9758 13.2464 57.9087 13.1737 57.8191 13.1737H56.6778V13.1625ZM68.4216 5.82917H67.2691C67.09 5.82917 66.9446 5.68373 66.9446 5.50473V4.35242C66.9446 4.26852 66.8774 4.1958 66.7879 4.1958H65.6465C65.4675 4.1958 65.322 4.05036 65.322 3.87136V2.71906C65.322 2.63515 65.2549 2.56243 65.1654 2.56243H59.934C59.755 2.56243 59.6095 2.41699 59.6095 2.238V1.09128C59.6095 0.912283 59.755 0.766846 59.934 0.766846H66.7879C66.9669 0.766846 67.1124 0.912283 67.1124 1.09128V2.24359C67.1124 2.3275 67.1796 2.40021 67.2691 2.40021H68.4216C68.6007 2.40021 68.7461 2.54565 68.7461 2.72465V5.51032C68.7461 5.68932 68.6007 5.83476 68.4216 5.83476V5.82917ZM59.934 0.934657C59.8501 0.934657 59.7774 1.00178 59.7774 1.09128V2.24359C59.7774 2.3275 59.8445 2.40021 59.934 2.40021H65.1654C65.3444 2.40021 65.4899 2.54565 65.4899 2.72465V3.87696C65.4899 3.96086 65.557 4.03358 65.6465 4.03358H66.7879C66.9669 4.03358 67.1124 4.17902 67.1124 4.35802V5.51032C67.1124 5.59423 67.1796 5.66695 67.2691 5.66695H68.4216C68.5056 5.66695 68.5783 5.59982 68.5783 5.51032V2.72465C68.5783 2.64074 68.5112 2.56803 68.4216 2.56803H67.2691C67.09 2.56803 66.9446 2.42259 66.9446 2.24359V1.09128C66.9446 1.00738 66.8774 0.934657 66.7879 0.934657H59.934Z" fill="#581000"/>
<path d="M77.6236 21.7993V14.9414C77.6236 14.8128 77.5173 14.7065 77.3886 14.7065H76.2248C76.0961 14.7065 75.9898 14.6002 75.9898 14.4716V10.858C75.9898 10.7294 75.8835 10.6231 75.7548 10.6231H74.5855C74.4568 10.6231 74.3505 10.5168 74.3505 10.3881V6.78577C74.3505 6.65712 74.2442 6.55084 74.1155 6.55084H72.9573C72.8287 6.55084 72.7223 6.44456 72.7223 6.3159V2.71354C72.7223 2.58488 72.616 2.4786 72.4874 2.4786H70.5123C70.3836 2.4786 70.2773 2.37232 70.2773 2.24367V1.08577C70.2773 0.957111 70.3836 0.85083 70.5123 0.85083H78.1887C78.3173 0.85083 78.4236 0.957111 78.4236 1.08577V2.25486C78.4236 2.38351 78.3173 2.48979 78.1887 2.48979H76.208C76.0793 2.48979 75.973 2.59607 75.973 2.72473V6.33827C75.973 6.46693 76.0793 6.57321 76.208 6.57321H77.3718C77.5005 6.57321 77.6068 6.67949 77.6068 6.80815V10.4105C77.6068 10.5392 77.7131 10.6454 77.8418 10.6454H79.0111C79.1398 10.6454 79.2461 10.7517 79.2461 10.8804V14.4939C79.2461 14.6226 79.3524 14.7289 79.4811 14.7289H80.6449C80.7735 14.7289 80.8798 14.8351 80.8798 14.9638V18.5662C80.8798 18.6948 80.7735 18.8011 80.6449 18.8011H79.4811C79.3524 18.8011 79.2461 18.9074 79.2461 19.036V21.8217C79.2461 21.9504 79.1398 22.0566 79.0111 22.0566H77.8418C77.7131 22.0566 77.6068 21.9504 77.6068 21.8217L77.6236 21.7993ZM70.4788 28.3272V25.5303C70.4788 25.4017 70.5851 25.2954 70.7138 25.2954H75.7604C75.8891 25.2954 75.9954 25.4017 75.9954 25.5303V26.6994C75.9954 26.8281 75.8891 26.9344 75.7604 26.9344H74.5911C74.4624 26.9344 74.3561 27.0407 74.3561 27.1693V28.3384C74.3561 28.4671 74.2498 28.5733 74.1211 28.5733H70.7082C70.5795 28.5733 70.4732 28.4671 70.4732 28.3384L70.4788 28.3272ZM75.9898 25.0661V22.2692C75.9898 22.1405 76.0961 22.0343 76.2248 22.0343H77.3886C77.5173 22.0343 77.6236 22.1405 77.6236 22.2692V25.0661C77.6236 25.1947 77.5173 25.301 77.3886 25.301H76.2248C76.0961 25.301 75.9898 25.1947 75.9898 25.0661ZM80.8854 14.4771V10.8636C80.8854 10.7349 80.9917 10.6287 81.1204 10.6287H82.2898C82.4185 10.6287 82.5248 10.7349 82.5248 10.8636V14.4771C82.5248 14.6058 82.4185 14.7121 82.2898 14.7121H81.1204C80.9917 14.7121 80.8854 14.6058 80.8854 14.4771ZM84.1417 6.33268V2.71354C84.1417 2.58488 84.0354 2.4786 83.9067 2.4786H81.9317C81.803 2.4786 81.6967 2.37232 81.6967 2.24367V1.08577C81.6967 0.957111 81.803 0.85083 81.9317 0.85083H87.9855C88.1142 0.85083 88.2205 0.957111 88.2205 1.08577V2.25486C88.2205 2.38351 88.1142 2.48979 87.9855 2.48979H86.0048C85.8762 2.48979 85.7699 2.59607 85.7699 2.72473V6.33827C85.7699 6.46693 85.6636 6.57321 85.5349 6.57321H84.3655C84.2368 6.57321 84.1305 6.46693 84.1305 6.33827L84.1417 6.33268ZM82.5192 10.3993V6.79696C82.5192 6.6683 82.6255 6.56202 82.7542 6.56202H83.9123C84.041 6.56202 84.1473 6.6683 84.1473 6.79696V10.3993C84.1473 10.528 84.041 10.6343 83.9123 10.6343H82.7542C82.6255 10.6343 82.5192 10.528 82.5192 10.3993Z" fill="#581000"/>
<path d="M74.1274 28.646H70.7145C70.541 28.646 70.3956 28.5061 70.3956 28.3271V25.5303C70.3956 25.3569 70.5354 25.2114 70.7145 25.2114H75.7612C75.9346 25.2114 76.0801 25.3513 76.0801 25.5303V26.6994C76.0801 26.8728 75.9402 27.0182 75.7612 27.0182H74.5918C74.5079 27.0182 74.4463 27.0853 74.4463 27.1636V28.3327C74.4463 28.5061 74.3065 28.6516 74.1274 28.6516V28.646ZM70.7145 25.3848C70.6306 25.3848 70.569 25.452 70.569 25.5303V28.3271C70.569 28.411 70.6362 28.4726 70.7145 28.4726H74.1274C74.2114 28.4726 74.2729 28.4054 74.2729 28.3271V27.158C74.2729 26.9846 74.4128 26.8392 74.5918 26.8392H75.7612C75.8451 26.8392 75.9066 26.7721 75.9066 26.6938V25.5247C75.9066 25.4408 75.8395 25.3792 75.7612 25.3792H70.7145V25.3848ZM77.3893 25.3848H76.2256C76.0521 25.3848 75.9066 25.245 75.9066 25.066V22.2691C75.9066 22.0957 76.0465 21.9503 76.2256 21.9503H77.3893C77.5628 21.9503 77.7082 22.0901 77.7082 22.2691V25.066C77.7082 25.2394 77.5683 25.3848 77.3893 25.3848ZM76.2256 22.1181C76.1416 22.1181 76.0801 22.1852 76.0801 22.2635V25.0604C76.0801 25.1443 76.1472 25.2058 76.2256 25.2058H77.3893C77.4732 25.2058 77.5348 25.1387 77.5348 25.0604V22.2635C77.5348 22.1796 77.4676 22.1181 77.3893 22.1181H76.2256ZM79.023 22.1181H77.8537C77.6802 22.1181 77.5348 21.9783 77.5348 21.7993V14.9413C77.5348 14.8574 77.4676 14.7959 77.3893 14.7959H76.2256C76.0521 14.7959 75.9066 14.6561 75.9066 14.4771V10.8635C75.9066 10.7796 75.8395 10.7181 75.7612 10.7181H74.5918C74.4184 10.7181 74.2729 10.5782 74.2729 10.3992V6.79688C74.2729 6.71298 74.2058 6.65144 74.1274 6.65144H72.9693C72.7958 6.65144 72.6504 6.5116 72.6504 6.3326V2.71346C72.6504 2.62956 72.5832 2.56803 72.5049 2.56803H70.5299C70.3564 2.56803 70.2109 2.42818 70.2109 2.24918V1.08569C70.2109 0.912283 70.3508 0.766846 70.5299 0.766846H78.2062C78.3796 0.766846 78.5251 0.906689 78.5251 1.08569V2.25478C78.5251 2.42818 78.3852 2.57362 78.2062 2.57362H76.2256C76.1416 2.57362 76.0801 2.64074 76.0801 2.71906V6.3326C76.0801 6.41651 76.1472 6.47804 76.2256 6.47804H77.3893C77.5628 6.47804 77.7082 6.61788 77.7082 6.79688V10.3992C77.7082 10.4831 77.7754 10.5447 77.8537 10.5447H79.023C79.1965 10.5447 79.342 10.6845 79.342 10.8635V14.4771C79.342 14.561 79.4091 14.6225 79.4874 14.6225H80.6512C80.8246 14.6225 80.9701 14.7623 80.9701 14.9413V18.5437C80.9701 18.7171 80.8302 18.8625 80.6512 18.8625H79.4874C79.4035 18.8625 79.342 18.9297 79.342 19.008V21.7993C79.342 21.9727 79.2021 22.1181 79.023 22.1181ZM70.5299 0.934657C70.4459 0.934657 70.3844 1.00178 70.3844 1.08009V2.24918C70.3844 2.33309 70.4515 2.39462 70.5299 2.39462H72.5049C72.6783 2.39462 72.8238 2.53446 72.8238 2.71346V6.32701C72.8238 6.41091 72.8909 6.47245 72.9693 6.47245H74.1274C74.3009 6.47245 74.4463 6.61229 74.4463 6.79129V10.3936C74.4463 10.4776 74.5135 10.5391 74.5918 10.5391H75.7612C75.9346 10.5391 76.0801 10.6789 76.0801 10.8579V14.4715C76.0801 14.5554 76.1472 14.6169 76.2256 14.6169H77.3893C77.5628 14.6169 77.7082 14.7568 77.7082 14.9358V21.7937C77.7082 21.8776 77.7754 21.9391 77.8537 21.9391H79.023C79.107 21.9391 79.1685 21.872 79.1685 21.7937V19.0024C79.1685 18.829 79.3084 18.6835 79.4874 18.6835H80.6512C80.7351 18.6835 80.7967 18.6164 80.7967 18.5381V14.9358C80.7967 14.8518 80.7295 14.7903 80.6512 14.7903H79.4874C79.314 14.7903 79.1685 14.6505 79.1685 14.4715V10.8579C79.1685 10.774 79.1014 10.7125 79.023 10.7125H77.8537C77.6802 10.7125 77.5348 10.5726 77.5348 10.3936V6.79129C77.5348 6.70738 77.4676 6.64585 77.3893 6.64585H76.2256C76.0521 6.64585 75.9066 6.50601 75.9066 6.32701V2.71346C75.9066 2.54006 76.0465 2.39462 76.2256 2.39462H78.2062C78.2901 2.39462 78.3516 2.3275 78.3516 2.24918V1.08569C78.3516 1.00178 78.2845 0.940251 78.2062 0.940251H70.5299V0.934657ZM82.2849 14.7959H81.1156C80.9421 14.7959 80.7967 14.6561 80.7967 14.4771V10.8635C80.7967 10.6901 80.9365 10.5447 81.1156 10.5447H82.2849C82.4584 10.5447 82.6038 10.6845 82.6038 10.8635V14.4771C82.6038 14.6505 82.464 14.7959 82.2849 14.7959ZM81.1212 10.7181C81.0372 10.7181 80.9757 10.7852 80.9757 10.8635V14.4771C80.9757 14.561 81.0428 14.6225 81.1212 14.6225H82.2905C82.3744 14.6225 82.436 14.5554 82.436 14.4771V10.8635C82.436 10.7796 82.3688 10.7181 82.2905 10.7181H81.1212ZM83.9075 10.7181H82.7493C82.5759 10.7181 82.4304 10.5782 82.4304 10.3992V6.79688C82.4304 6.62348 82.5703 6.47804 82.7493 6.47804H83.9075C84.0809 6.47804 84.2264 6.61788 84.2264 6.79688V10.3992C84.2264 10.5726 84.0865 10.7181 83.9075 10.7181ZM82.7493 6.64585C82.6654 6.64585 82.6038 6.71298 82.6038 6.79129V10.3936C82.6038 10.4776 82.671 10.5391 82.7493 10.5391H83.9075C83.9914 10.5391 84.0529 10.472 84.0529 10.3936V6.79129C84.0529 6.70738 83.9858 6.64585 83.9075 6.64585H82.7493ZM85.5412 6.64585H84.3718C84.1984 6.64585 84.0529 6.50601 84.0529 6.32701V2.71346C84.0529 2.62956 83.9858 2.56803 83.9075 2.56803H81.9324C81.759 2.56803 81.6135 2.42818 81.6135 2.24918V1.08569C81.6135 0.912283 81.7534 0.766846 81.9324 0.766846H87.9862C88.1596 0.766846 88.3051 0.906689 88.3051 1.08569V2.25478C88.3051 2.42818 88.1652 2.57362 87.9862 2.57362H86.0056C85.9217 2.57362 85.8601 2.64074 85.8601 2.71906V6.3326C85.8601 6.50601 85.7202 6.65144 85.5412 6.65144V6.64585ZM81.9324 0.934657C81.8485 0.934657 81.787 1.00178 81.787 1.08009V2.24918C81.787 2.33309 81.8541 2.39462 81.9324 2.39462H83.9075C84.0809 2.39462 84.2264 2.53446 84.2264 2.71346V6.32701C84.2264 6.41091 84.2935 6.47245 84.3718 6.47245H85.5412C85.6251 6.47245 85.6867 6.40532 85.6867 6.32701V2.71346C85.6867 2.54006 85.8265 2.39462 86.0056 2.39462H87.9862C88.0701 2.39462 88.1317 2.3275 88.1317 2.24918V1.08569C88.1317 1.00178 88.0645 0.940251 87.9862 0.940251H81.9324V0.934657Z" fill="#581000"/>
</g>
<defs>
<clipPath id="clip0_1488_1241">
<rect width="108" height="27.8791" fill="white" transform="translate(0 0.766846)"/>
</clipPath>
</defs>
</svg>
