<svg viewBox="0 0 100 100" xmlns="http://www.w3.org/2000/svg">
  <!-- Pixelated circular DNA outline -->
  <rect x="30" y="10" width="10" height="10" fill="white"/>
  <rect x="40" y="10" width="10" height="10" fill="white"/>
  <rect x="50" y="10" width="10" height="10" fill="white"/>
  <rect x="60" y="10" width="10" height="10" fill="white"/>
  <rect x="70" y="20" width="10" height="10" fill="white"/>
  <rect x="80" y="30" width="10" height="10" fill="white"/>
  <rect x="80" y="40" width="10" height="10" fill="white"/>
  <rect x="80" y="50" width="10" height="10" fill="white"/>
  <rect x="80" y="60" width="10" height="10" fill="white"/>
  <rect x="70" y="70" width="10" height="10" fill="white"/>
  <rect x="60" y="80" width="10" height="10" fill="white"/>
  <rect x="50" y="80" width="10" height="10" fill="white"/>
  <rect x="40" y="80" width="10" height="10" fill="white"/>
  <rect x="30" y="80" width="10" height="10" fill="white"/>
  <rect x="20" y="70" width="10" height="10" fill="white"/>
  <rect x="10" y="60" width="10" height="10" fill="white"/>
  <rect x="10" y="50" width="10" height="10" fill="white"/>
  <rect x="10" y="40" width="10" height="10" fill="white"/>
  <rect x="10" y="30" width="10" height="10" fill="white"/>
  <rect x="20" y="20" width="10" height="10" fill="white"/>
  
  <!-- Dovetail notch elements -->
  <rect x="45" y="25" width="10" height="10" fill="white"/>
  <rect x="45" y="65" width="10" height="10" fill="white"/>
  <rect x="25" y="45" width="10" height="10" fill="white"/>
  <rect x="65" y="45" width="10" height="10" fill="white"/>
</svg>


