<svg id="Layer_2" data-name="Layer 2" xmlns="http://www.w3.org/2000/svg" xmlns:xlink="http://www.w3.org/1999/xlink" viewBox="0 0 109.06 145.42">
  <defs>
    <style>
      .cls-1 {
        fill: none;
      }

      .cls-2 {
        stroke-width: 4px;
      }

      .cls-2, .cls-3 {
        fill: beige;
        stroke: beige;
        stroke-miterlimit: 10;
      }

      .cls-4 {
        clip-path: url(#clippath-1);
      }

      .cls-5 {
        clip-path: url(#clippath-3);
      }

      .cls-6 {
        clip-path: url(#clippath-2);
      }

      .cls-7 {
        clip-path: url(#clippath);
      }
    </style>
    <clipPath id="clippath">
      <rect class="cls-1" y="32.8" width="39.33" height="82.2"/>
    </clipPath>
    <clipPath id="clippath-1">
      <rect class="cls-1" x="69.73" y="32.8" width="39.33" height="82.2"/>
    </clipPath>
    <clipPath id="clippath-2">
      <polygon class="cls-1" points="38.44 32.8 38.44 32.8 54.35 32.8 54.35 42.41 38.44 42.41 38.44 32.8"/>
    </clipPath>
    <clipPath id="clippath-3">
      <polygon class="cls-1" points="70.62 32.8 70.62 32.8 54.71 32.8 54.71 42.41 70.62 42.41 70.62 32.8"/>
    </clipPath>
  </defs>
  <circle class="cls-3" cx="54.81" cy="22.89" r="12.6"/>
  <g>
    <g id="_Mirror_Repeat_" data-name="&amp;lt;Mirror Repeat&amp;gt;">
      <g class="cls-7">
        <path class="cls-3" d="M36.62,33.58c-5.07-2.67-19.75,14.33-27.16,27.16-4.12,7.13-9.02,15.85-8.96,28.06.05,9.6,3.18,25.03,8.66,25.67,12.63,1.47,37.14-75.8,27.46-80.9Z"/>
      </g>
    </g>
    <g id="_Mirror_Repeat_-2" data-name="&amp;lt;Mirror Repeat&amp;gt;">
      <g class="cls-4">
        <path class="cls-3" d="M72.44,33.58c5.07-2.67,19.75,14.33,27.16,27.16,4.12,7.13,9.02,15.85,8.96,28.06-.05,9.6-3.18,25.03-8.66,25.67-12.63,1.47-37.14-75.8-27.46-80.9Z"/>
      </g>
    </g>
  </g>
  <path class="cls-3" d="M54.53,45.52c-11.94.05-25.9,39.53-17.91,71.94.49,1.97,6.91,27.2,17.31,27.46,8.73.22,16.05-17.28,18.81-27.46,8.72-32.18-6.2-71.99-18.21-71.94Z"/>
  <g>
    <g id="_Mirror_Repeat_-3" data-name="&amp;lt;Mirror Repeat&amp;gt;">
      <g class="cls-6">
        <path class="cls-2" d="M52.35,32.8c0,4.21-6.22,7.62-13.9,7.62"/>
      </g>
    </g>
    <g id="_Mirror_Repeat_-4" data-name="&amp;lt;Mirror Repeat&amp;gt;">
      <g class="cls-5">
        <path class="cls-2" d="M56.71,32.8c0,4.21,6.22,7.62,13.9,7.62"/>
      </g>
    </g>
  </g>
  <path class="cls-3" d="M18.95,27.32C23.55,11.74,37.68.88,53.67.51c16.69-.38,31.81,10.75,36.51,27.06"/>
</svg>
